# 3ds Max Wavefront OBJ Exporter v0.97b - (c)2007 guruware
# File Created: 29.10.2016 19:33:55

mtllib MessengerProbe_heatShield.mtl

#
# object AO_heatshield
#

v  -2.6697 12.4349 -10.3186
v  4.2129 12.4349 -10.3186
v  4.2129 13.8745 -10.3186
v  -2.6697 13.8745 -10.3186
v  -2.6697 -12.5209 -10.3186
v  4.2129 -12.5209 -10.3186
v  12.5247 -0.7770 -5.8236
v  12.5247 12.4348 -5.8236
v  10.0277 12.4349 -5.8211
v  10.0277 -0.7770 -5.8211
v  10.0277 -12.5209 -5.8211
v  6.2623 12.4349 -9.5865
v  6.2623 -12.5209 -9.5865
v  -8.4845 -0.7770 -5.8211
v  -8.4845 12.4349 -5.8211
v  -10.9815 12.4348 -5.8236
v  -10.9815 -0.7770 -5.8236
v  -4.7191 -12.5209 -9.5865
v  -4.7191 12.4349 -9.5865
v  -8.4845 -12.5209 -5.8211
v  -2.7118 -12.5209 -10.4778
v  -4.8078 -12.5209 -9.7280
v  -4.8078 12.4349 -9.7280
v  -2.7118 12.4349 -10.4778
v  -8.6055 12.4349 -5.9326
v  -8.6055 -12.5209 -5.9326
v  -8.6055 -0.7770 -5.9326
v  -10.9815 -0.7770 -5.9359
v  -10.9815 12.4348 -5.9359
v  4.2550 -12.5209 -10.4778
v  4.2550 12.4349 -10.4778
v  6.3510 12.4349 -9.7280
v  6.3510 -12.5209 -9.7280
v  10.1487 12.4349 -5.9326
v  10.1487 -12.5209 -5.9326
v  10.1487 -0.7770 -5.9326
v  12.5247 -0.7770 -5.9359
v  12.5247 12.4348 -5.9359
v  -2.7118 13.8745 -10.4778
v  4.2550 13.8745 -10.4778
# 40 vertices

vn 0.1136 0.0000 0.9935
vn -0.1136 0.0000 0.9935
vn 0.0000 0.0000 1.0000
vn 0.1707 0.0000 0.9853
vn -0.1707 0.0000 0.9853
vn 0.0010 0.0000 1.0000
vn -0.3822 0.0000 0.9241
vn -0.5052 0.0000 0.8630
vn -0.7071 0.0000 0.7071
vn -0.5348 0.0000 0.8450
vn 0.5052 0.0000 0.8630
vn 0.3822 0.0000 0.9241
vn -0.0010 0.0000 1.0000
vn 0.5348 0.0000 0.8450
vn 0.7071 0.0000 0.7071
vn -0.1709 0.0000 -0.9853
vn -0.5348 0.0000 -0.8449
vn -0.1137 0.0000 -0.9935
vn -0.3819 0.0000 -0.9242
vn -0.7069 0.0000 -0.7073
vn -0.5049 0.0000 -0.8632
vn 0.0014 0.0000 -1.0000
vn 0.1709 0.0000 -0.9853
vn 0.1137 0.0000 -0.9935
vn 0.5348 0.0000 -0.8449
vn 0.3819 0.0000 -0.9242
vn 0.7069 0.0000 -0.7073
vn -0.0006 0.8944 -0.4472
vn -0.0014 0.0000 -1.0000
vn -0.0000 0.0000 -1.0000
vn -0.4857 -0.6978 0.5265
vn -0.4733 -0.7160 0.5131
vn -0.6128 -0.4281 0.6642
vn -0.3715 -0.8365 0.4028
vn 0.6128 -0.4281 0.6642
vn 0.4733 -0.7160 0.5131
vn 0.4857 -0.6978 0.5265
vn 0.3715 -0.8365 0.4028
vn -0.6298 0.7587 0.1666
vn -0.7419 0.6411 0.1962
vn -0.7023 0.6872 0.1858
vn -0.6655 0.7254 0.1760
vn 0.6655 0.7254 0.1760
vn 0.7023 0.6872 0.1858
vn 0.7419 0.6411 0.1962
vn 0.6298 0.7587 0.1666
vn 0.0000 -1.0000 -0.0000
vn 0.0000 1.0000 -0.0000
vn 0.7069 0.7073 -0.0000
vn 0.7074 0.7067 -0.0000
vn 0.7069 -0.7073 -0.0000
vn 0.7074 -0.7068 -0.0000
vn -0.7074 0.7067 0.0000
vn -0.7069 0.7073 0.0000
vn -0.7069 -0.7073 0.0000
vn -0.7074 -0.7068 0.0000
# 56 vertex normals

vt 0.5678 0.5709 0.0000
vt 0.7361 0.5714 0.0000
vt 0.7359 0.6043 0.0000
vt 0.5677 0.6039 0.0000
vt 0.5696 0.0001 0.0000
vt 0.7379 0.0006 0.0000
vt 0.5797 0.6045 0.0000
vt 0.5787 0.9067 0.0000
vt 0.5177 0.9065 0.0000
vt 0.5186 0.6043 0.0000
vt 0.7899 0.5711 0.0000
vt 0.8826 0.0000 0.0000
vt 0.8845 0.5708 0.0000
vt 0.8833 0.0000 0.0000
vt 0.7890 0.3025 0.0000
vt 0.7884 0.0003 0.0000
vt 0.7867 0.0008 0.0000
vt 0.7849 0.5716 0.0000
vt 0.7901 0.8734 0.0000
vt 0.7891 0.5712 0.0000
vt 0.8491 0.5711 0.0000
vt 0.8501 0.8732 0.0000
vt 0.8852 0.5708 0.0000
vt 0.9823 0.0003 0.0000
vt 0.9804 0.5711 0.0000
vt 0.8871 0.0000 0.0000
vt 0.8862 0.2686 0.0000
vt 0.5199 0.5708 0.0000
vt 0.5217 0.0000 0.0000
vt 0.3163 0.0009 0.0000
vt 0.3676 0.0010 0.0000
vt 0.3657 0.5718 0.0000
vt 0.3145 0.5717 0.0000
vt 0.4586 0.5721 0.0000
vt 0.4604 0.0013 0.0000
vt 0.4596 0.2699 0.0000
vt 0.5177 0.2701 0.0000
vt 0.5167 0.5723 0.0000
vt 0.1460 0.0004 0.0000
vt 0.1441 0.5712 0.0000
vt 0.0929 0.5711 0.0000
vt 0.0947 0.0003 0.0000
vt 0.0020 0.5708 0.0000
vt 0.0039 0.0000 0.0000
vt 0.0000 0.0000 0.0000
vt 0.7880 0.9065 0.0000
vt 0.7299 0.9067 0.0000
vt 0.7290 0.6045 0.0000
vt 0.7870 0.6043 0.0000
vt 0.3144 0.6046 0.0000
vt 0.1440 0.6041 0.0000
vt 0.8785 0.5711 0.0000
vt 0.8814 0.5711 0.0000
vt 0.8806 0.8397 0.0000
vt 0.8776 0.8397 0.0000
vt 0.8568 0.5711 0.0000
vt 0.8577 0.8397 0.0000
vt 0.8547 0.8397 0.0000
vt 0.8538 0.5711 0.0000
vt 0.6249 0.6373 0.0000
vt 0.6210 0.6373 0.0000
vt 0.6211 0.6043 0.0000
vt 0.6250 0.6043 0.0000
vt 0.6171 0.6373 0.0000
vt 0.6170 0.6043 0.0000
vt 0.6209 0.6043 0.0000
vt 0.6940 0.7637 0.0000
vt 0.6901 0.7627 0.0000
vt 0.6906 0.6053 0.0000
vt 0.6945 0.6043 0.0000
vt 0.8852 0.8649 0.0000
vt 0.8857 0.7055 0.0000
vt 0.8896 0.7065 0.0000
vt 0.8891 0.8639 0.0000
vt 0.5797 0.6529 0.0000
vt 0.6118 0.6043 0.0000
vt 0.6141 0.6057 0.0000
vt 0.5836 0.6519 0.0000
vt 0.8814 0.8732 0.0000
vt 0.8824 0.5711 0.0000
vt 0.8852 0.5711 0.0000
vt 0.8842 0.8732 0.0000
vt 0.6900 0.6615 0.0000
vt 0.6873 0.6587 0.0000
vt 0.6874 0.6043 0.0000
vt 0.6901 0.6043 0.0000
vt 1.0000 0.5738 0.0000
vt 0.9076 0.6597 0.0000
vt 0.9042 0.6577 0.0000
vt 0.9973 0.5711 0.0000
vt 0.6139 0.7714 0.0000
vt 0.6098 0.7714 0.0000
vt 0.6026 0.8212 0.0000
vt 0.5987 0.8201 0.0000
vt 0.6945 0.6057 0.0000
vt 0.6969 0.6043 0.0000
vt 0.7290 0.6529 0.0000
vt 0.7251 0.6519 0.0000
vt 0.8511 0.8732 0.0000
vt 0.8501 0.5711 0.0000
vt 0.8528 0.5711 0.0000
vt 0.8538 0.8732 0.0000
vt 0.6169 0.6043 0.0000
vt 0.6170 0.6587 0.0000
vt 0.6142 0.6615 0.0000
vt 0.6141 0.6043 0.0000
vt 0.9034 0.9129 0.0000
vt 0.9068 0.9109 0.0000
vt 0.9986 0.9972 0.0000
vt 0.9959 1.0000 0.0000
vt 0.6989 0.7714 0.0000
vt 0.6948 0.7714 0.0000
vt 0.7099 0.8201 0.0000
vt 0.7061 0.8212 0.0000
# 114 texture coords

g AO_heatshield
usemtl AO_heatshield__AO_heatshield_png
s off
f 1/1/1 2/2/2 3/3/3 4/4/3 
f 2/2/2 1/1/1 5/5/4 6/6/5 
f 7/7/6 8/8/6 9/9/7 10/10/8 
f 11/11/9 12/12/10 13/13/10 
f 12/14/10 11/11/9 10/15/8 9/16/7 
f 2/2/2 6/6/5 13/17/10 12/18/10 
f 14/19/11 15/20/12 16/21/13 17/22/13 
f 15/23/12 18/24/14 19/25/14 
f 20/26/15 18/24/14 15/23/12 14/27/11 
f 1/1/1 19/28/14 18/29/14 5/5/4 
f 21/30/16 22/31/17 23/32/17 24/33/18 
f 25/34/19 23/32/17 26/35/20 27/36/21 
f 26/35/20 23/32/17 22/31/17 
f 28/37/22 29/38/22 25/34/19 27/36/21 
f 30/39/23 31/40/24 32/41/25 33/42/25 
f 34/43/26 35/44/27 33/42/25 32/41/25 
f 36/45/28 35/45/27 34/45/26 
f 37/46/29 36/47/28 34/48/26 38/49/29 
f 31/40/24 30/39/23 21/30/16 24/33/18 
f 24/33/18 39/50/30 40/51/30 31/40/24 
f 26/52/31 20/53/32 14/54/33 27/55/34 
f 10/56/35 11/57/36 35/58/37 36/59/38 
f 4/60/39 39/61/40 24/62/41 1/63/42 
f 2/61/43 31/64/44 40/65/45 3/66/46 
f 39/67/40 4/68/39 3/69/46 40/70/45 
f 21/71/47 30/72/47 6/73/47 5/74/47 
f 9/75/48 8/76/49 38/77/50 34/78/48 
f 8/79/49 7/80/51 37/81/52 38/82/50 
f 10/83/35 36/84/38 37/85/52 7/86/51 
f 11/87/36 13/88/47 33/89/47 35/90/37 
f 34/78/48 32/91/48 12/92/48 9/75/48 
f 13/88/47 6/73/47 30/72/47 33/89/47 
f 31/93/44 2/94/43 12/92/48 32/91/48 
f 29/95/53 16/96/54 15/97/48 25/98/48 
f 17/99/55 16/100/54 29/101/53 28/102/56 
f 28/103/56 27/104/34 14/105/33 17/106/55 
f 22/107/47 18/108/47 20/109/32 26/110/31 
f 15/97/48 19/111/48 23/112/48 25/98/48 
f 22/107/47 21/71/47 5/74/47 18/108/47 
f 23/112/48 19/111/48 1/113/42 24/114/41 
# 36 polygons - 4 triangles

