# 3ds Max Wavefront OBJ Exporter v0.97b - (c)2007 guruware
# File Created: 29.10.2016 19:34:32

mtllib MessengerProbe_panels.mtl

#
# object Tex_01
#

v  3.8336 -9.2884 4.0957
v  2.0220 -9.2884 2.0945
v  2.7435 -9.2884 1.7580
v  3.3448 -9.2884 3.5847
v  3.0167 -9.2884 3.7453
v  3.1121 -9.2884 4.4321
v  3.1773 -9.2884 4.0735
v  3.5054 -9.2884 3.9129
v  -2.3221 -9.2884 -7.2216
v  -2.0062 -9.2884 -7.0199
v  -1.2321 -9.2884 -4.8839
v  -1.8461 -9.2884 -6.6916
v  -1.5177 -9.2884 -6.8517
v  -1.6006 -9.2884 -7.5580
v  -0.5106 -9.2884 -5.2204
v  -1.6779 -9.2884 -7.1801
v  -2.3221 -8.4916 -7.2216
v  -1.2321 -8.4923 -4.8839
v  -0.5106 -8.4923 -5.2204
v  -1.6006 -8.4916 -7.5580
v  2.3427 -8.4923 2.7823
v  3.0642 -8.4923 2.4458
v  2.7435 -8.4923 1.7580
v  2.0220 -8.4923 2.0945
v  3.8336 -9.1115 4.0957
v  3.1121 -9.1115 4.4321
v  -2.2360 -8.6768 -7.0298
v  -2.6049 -8.6768 -6.8578
v  -2.3440 -8.6768 -6.3100
v  -1.9751 -8.6768 -6.4820
v  -2.9877 -9.1039 -6.0179
v  -1.9751 -9.1039 -6.4820
v  -2.9877 -9.0089 -6.0179
v  -3.2486 -9.0089 -6.5658
v  -3.2486 -9.1039 -6.5658
v  -2.2360 -9.1039 -7.0298
v  -0.7587 -9.8067 -0.4947
v  -0.9658 -9.8067 -0.4392
v  -1.1728 -9.8067 -0.4947
v  -0.6071 -9.8067 -0.6463
v  -0.6071 -9.8067 -1.0605
v  -0.5516 -9.8067 -0.8534
v  -0.7587 -9.8067 -1.2121
v  -0.9658 -9.8067 -1.2676
v  -1.3244 -9.8067 -1.0605
v  -1.1728 -9.8067 -1.2121
v  -1.3244 -9.8067 -0.6463
v  -1.3799 -9.8067 -0.8534
v  0.1382 -9.8067 -0.1517
v  0.3453 -9.8067 -0.0962
v  -0.2205 -9.8067 0.0554
v  -0.0689 -9.8067 -0.0962
v  -0.2205 -9.8067 0.4695
v  -0.2760 -9.8067 0.2625
v  0.1382 -9.8067 0.6766
v  -0.0689 -9.8067 0.6212
v  0.4969 -9.8067 0.4695
v  0.3453 -9.8067 0.6212
v  0.4969 -9.8067 0.0554
v  0.5524 -9.8067 0.2625
v  -0.0689 -9.8067 -0.4947
v  0.4969 -9.8067 -0.6463
v  0.3453 -9.8067 -0.4947
v  0.1382 -9.8067 -0.4392
v  0.4969 -9.8067 -1.0605
v  0.5524 -9.8067 -0.8534
v  0.1382 -9.8067 -1.2676
v  0.3453 -9.8067 -1.2121
v  -0.2205 -9.8067 -1.0605
v  -0.0689 -9.8067 -1.2121
v  -0.2205 -9.8067 -0.6463
v  -0.2760 -9.8067 -0.8534
v  -0.9658 -9.8067 -0.1517
v  -0.7587 -9.8067 -0.0962
v  -1.3244 -9.8067 0.0554
v  -1.1728 -9.8067 -0.0962
v  -1.3244 -9.8067 0.4695
v  -1.3799 -9.8067 0.2625
v  -0.9658 -9.8067 0.6766
v  -1.1728 -9.8067 0.6212
v  -0.6071 -9.8067 0.4695
v  -0.7587 -9.8067 0.6212
v  -0.6071 -9.8067 0.0554
v  -0.5516 -9.8067 0.2625
v  -0.2977 -9.8606 -0.2277
v  -0.3464 -9.8606 -0.1790
v  -0.4130 -9.8606 -0.1612
v  -0.4795 -9.8606 -0.1790
v  -0.2977 -9.8606 -0.3608
v  -0.2799 -9.8606 -0.2943
v  -0.4130 -9.8606 -0.4273
v  -0.3464 -9.8606 -0.4095
v  -0.5282 -9.8606 -0.3608
v  -0.4795 -9.8606 -0.4095
v  -0.5282 -9.8606 -0.2277
v  -0.5460 -9.8606 -0.2943
v  18.4736 -10.1230 -1.3925
v  18.4736 -10.1230 -1.7273
v  35.5556 -10.1230 -1.7273
v  35.5556 -10.1230 -1.3925
v  35.5556 10.4050 -1.3925
v  35.5556 10.4050 -1.7273
v  18.4736 10.4050 -1.3925
v  18.4736 10.4050 -1.7273
v  -34.0124 -10.1230 -1.3925
v  -34.0124 -10.1230 -1.7273
v  -16.9304 -10.1230 -1.7273
v  -16.9304 -10.1230 -1.3925
v  -34.0124 10.4050 -1.3925
v  -34.0124 10.4050 -1.7273
v  -16.9304 10.4050 -1.3925
v  -16.9304 10.4050 -1.7273
v  -5.6755 -1.3891 1.6294
v  -5.6755 -1.3891 -4.3449
v  -5.6755 -5.5131 -4.3449
v  -5.6755 -5.5131 1.6294
v  -5.6755 6.1761 1.6890
v  -5.6755 6.1761 -4.3350
v  -5.6755 1.8475 -4.3310
v  -5.6755 1.8475 1.6592
v  7.2187 -1.3891 1.6294
v  7.2187 -5.5131 1.6294
v  7.2187 -5.5131 -4.3449
v  7.2187 -1.3891 -4.3449
v  7.2187 6.1761 -4.3350
v  7.2187 6.1761 1.6890
v  7.2187 1.8475 1.6592
v  7.2187 1.8475 -4.3310
v  4.1470 9.4730 -3.1201
v  4.1470 9.4730 -1.3019
v  4.1470 8.4518 -1.3019
v  4.1470 8.4518 -3.1201
v  -0.9360 -9.9020 -2.7575
v  -0.9360 -9.9020 -3.1514
v  -0.3006 -9.9020 -3.1514
v  -0.3006 -9.9020 -2.7575
# 136 vertices

vn 0.0000 -1.0000 -0.0000
vn 0.0001 1.0000 0.0002
vn 0.0000 1.0000 -0.0000
vn 0.9063 0.0000 -0.4226
vn 0.4226 0.0000 0.9063
vn -0.9063 0.0000 0.4226
vn 0.1361 0.9467 0.2919
vn -0.4226 0.0000 -0.9063
vn 0.4166 0.0000 0.9091
vn 0.4200 -0.0125 0.9075
vn -0.9029 0.0000 0.4299
vn -0.4166 0.0000 -0.9091
vn -0.4199 0.0124 -0.9075
vn -0.3840 0.9050 0.1829
vn 1.0000 0.0000 -0.0000
vn -1.0000 0.0000 0.0000
vn -0.0000 0.0000 -1.0000
vn 0.0000 0.0000 1.0000
# 18 vertex normals

vt 0.6491 0.7776 0.0000
vt 0.6360 0.8482 0.0000
vt 0.6487 0.8393 0.0000
vt 0.6454 0.7961 0.0000
vt 0.6396 0.8000 0.0000
vt 0.6364 0.7864 0.0000
vt 0.6397 0.7912 0.0000
vt 0.6456 0.7873 0.0000
vt 0.6452 0.9320 0.0000
vt 0.6472 0.9260 0.0000
vt 0.6459 0.8939 0.0000
vt 0.6474 0.9205 0.0000
vt 0.6510 0.9182 0.0000
vt 0.6530 0.9266 0.0000
vt 0.6538 0.8886 0.0000
vt 0.6509 0.9236 0.0000
vt 0.6561 0.9361 0.0000
vt 0.6569 0.8980 0.0000
vt 0.6648 0.8927 0.0000
vt 0.6640 0.9307 0.0000
vt 0.6540 0.8364 0.0000
vt 0.6667 0.8276 0.0000
vt 0.6666 0.8458 0.0000
vt 0.6539 0.8546 0.0000
vt 0.6531 0.7790 0.0000
vt 0.6404 0.7878 0.0000
vt 0.6536 0.9320 0.0000
vt 0.6496 0.9348 0.0000
vt 0.6498 0.9258 0.0000
vt 0.6538 0.9231 0.0000
vt 0.6369 0.9284 0.0000
vt 0.6479 0.9209 0.0000
vt 0.6382 0.9289 0.0000
vt 0.6380 0.9379 0.0000
vt 0.6367 0.9374 0.0000
vt 0.6477 0.9298 0.0000
vt 0.7856 0.8360 0.0000
vt 0.7811 0.8192 0.0000
vt 0.7856 0.8024 0.0000
vt 0.7979 0.8483 0.0000
vt 0.8315 0.8483 0.0000
vt 0.8147 0.8528 0.0000
vt 0.8438 0.8360 0.0000
vt 0.8483 0.8192 0.0000
vt 0.8315 0.7901 0.0000
vt 0.8438 0.8024 0.0000
vt 0.7979 0.7901 0.0000
vt 0.8147 0.7856 0.0000
vt 0.7578 0.9088 0.0000
vt 0.7533 0.9256 0.0000
vt 0.7410 0.8797 0.0000
vt 0.7533 0.8920 0.0000
vt 0.7074 0.8797 0.0000
vt 0.7242 0.8752 0.0000
vt 0.6905 0.9088 0.0000
vt 0.6950 0.8920 0.0000
vt 0.7074 0.9379 0.0000
vt 0.6950 0.9256 0.0000
vt 0.7410 0.9379 0.0000
vt 0.7242 0.9424 0.0000
vt 0.7856 0.8920 0.0000
vt 0.7979 0.9379 0.0000
vt 0.7856 0.9256 0.0000
vt 0.7811 0.9088 0.0000
vt 0.8315 0.9379 0.0000
vt 0.8147 0.9424 0.0000
vt 0.8483 0.9088 0.0000
vt 0.8438 0.9256 0.0000
vt 0.8315 0.8797 0.0000
vt 0.8438 0.8920 0.0000
vt 0.7979 0.8797 0.0000
vt 0.8147 0.8752 0.0000
vt 0.7578 0.8192 0.0000
vt 0.7533 0.8360 0.0000
vt 0.7410 0.7901 0.0000
vt 0.7533 0.8024 0.0000
vt 0.7074 0.7901 0.0000
vt 0.7242 0.7856 0.0000
vt 0.6905 0.8192 0.0000
vt 0.6950 0.8024 0.0000
vt 0.7074 0.8483 0.0000
vt 0.6950 0.8360 0.0000
vt 0.7410 0.8483 0.0000
vt 0.7242 0.8528 0.0000
vt 0.7639 0.8734 0.0000
vt 0.7600 0.8695 0.0000
vt 0.7585 0.8641 0.0000
vt 0.7600 0.8587 0.0000
vt 0.7747 0.8734 0.0000
vt 0.7693 0.8749 0.0000
vt 0.7801 0.8641 0.0000
vt 0.7787 0.8695 0.0000
vt 0.7747 0.8547 0.0000
vt 0.7787 0.8587 0.0000
vt 0.7639 0.8547 0.0000
vt 0.7693 0.8533 0.0000
vt 0.5609 0.7516 0.0000
vt 0.5672 0.7516 0.0000
vt 0.5672 0.2339 0.0000
vt 0.5609 0.2339 0.0000
vt 0.5603 0.7479 0.0000
vt 0.5597 0.2385 0.0000
vt 0.5680 0.2385 0.0000
vt 0.5686 0.7479 0.0000
vt 0.4110 0.7765 0.0000
vt 0.0174 0.7765 0.0000
vt 0.0174 0.3035 0.0000
vt 0.4110 0.3035 0.0000
vt 0.5905 0.6676 0.0000
vt 0.5905 0.2046 0.0000
vt 0.9768 0.2046 0.0000
vt 0.9768 0.6676 0.0000
vt 0.4107 0.3036 0.0000
vt 0.0171 0.3036 0.0000
vt 0.0171 0.7766 0.0000
vt 0.4107 0.7766 0.0000
vt 0.5904 0.2056 0.0000
vt 0.5904 0.6665 0.0000
vt 0.9739 0.6665 0.0000
vt 0.9739 0.2056 0.0000
vt 0.2891 0.9723 0.0000
vt 0.5412 0.9723 0.0000
vt 0.5412 0.7983 0.0000
vt 0.2891 0.7983 0.0000
vt 0.3168 0.9660 0.0000
vt 0.5619 0.9660 0.0000
vt 0.5617 0.7899 0.0000
vt 0.3180 0.7899 0.0000
vt 0.5847 0.9839 0.0000
vt 0.3305 0.9839 0.0000
vt 0.3318 0.8013 0.0000
vt 0.5846 0.8013 0.0000
vt 0.2011 0.9782 0.0000
vt 0.0193 0.9750 0.0000
vt 0.0210 0.8729 0.0000
vt 0.2029 0.8761 0.0000
vt 0.1989 0.8017 0.0000
vt 0.2233 0.8022 0.0000
vt 0.2226 0.8417 0.0000
vt 0.1981 0.8412 0.0000
# 140 texture coords

g Tex_01
usemtl 13___Default
s off
f 1/1/1 2/2/1 3/3/1 
f 4/4/1 5/5/1 2/2/1 
f 6/6/1 2/2/1 5/5/1 7/7/1 
f 4/4/1 2/2/1 1/1/1 8/8/1 
f 1/1/1 6/6/1 7/7/1 8/8/1 
f 9/9/1 10/10/1 11/11/1 
f 12/12/1 13/13/1 11/11/1 10/10/1 
f 14/14/1 15/15/1 11/11/1 
f 13/13/1 16/16/1 14/14/1 11/11/1 
f 16/16/1 10/10/1 9/9/1 14/14/1 
f 17/17/2 18/18/2 19/19/2 20/20/2 
f 21/21/3 22/22/3 23/23/3 24/24/3 
f 23/23/4 1/1/4 3/3/4 
f 23/23/4 22/22/4 25/25/4 1/1/4 
f 1/1/5 25/25/5 26/26/5 6/6/5 
f 6/6/6 24/24/6 2/2/6 
f 6/6/6 26/26/6 21/21/6 24/24/6 
f 25/25/7 22/22/7 21/21/7 26/26/7 
f 18/18/6 17/17/6 9/9/6 11/11/6 
f 9/9/8 17/17/8 20/20/8 14/14/8 
f 14/14/4 20/20/4 19/19/4 15/15/4 
f 27/27/3 28/28/3 29/29/3 30/30/3 
f 30/30/9 31/31/9 32/32/9 
f 33/33/10 31/31/10 30/30/10 29/29/10 
f 34/34/11 35/35/11 31/31/11 33/33/11 
f 35/35/12 27/27/12 36/36/12 
f 27/27/13 35/35/13 34/34/13 28/28/13 
f 31/31/1 35/35/1 36/36/1 32/32/1 
f 34/34/14 33/33/14 29/29/14 28/28/14 
f 37/37/1 38/38/1 39/39/1 40/40/1 
f 41/41/1 42/42/1 40/40/1 39/39/1 
f 43/43/1 41/41/1 39/39/1 44/44/1 
f 39/39/1 45/45/1 46/46/1 44/44/1 
f 45/45/1 39/39/1 47/47/1 48/48/1 
f 49/49/1 50/50/1 51/51/1 52/52/1 
f 51/51/1 50/50/1 53/53/1 54/54/1 
f 53/53/1 50/50/1 55/55/1 56/56/1 
f 50/50/1 57/57/1 58/58/1 55/55/1 
f 50/50/1 59/59/1 60/60/1 57/57/1 
f 61/61/1 62/62/1 63/63/1 64/64/1 
f 62/62/1 61/61/1 65/65/1 66/66/1 
f 65/65/1 61/61/1 67/67/1 68/68/1 
f 61/61/1 69/69/1 70/70/1 67/67/1 
f 61/61/1 71/71/1 72/72/1 69/69/1 
f 73/73/1 74/74/1 75/75/1 76/76/1 
f 75/75/1 74/74/1 77/77/1 78/78/1 
f 77/77/1 74/74/1 79/79/1 80/80/1 
f 74/74/1 81/81/1 82/82/1 79/79/1 
f 74/74/1 83/83/1 84/84/1 81/81/1 
f 85/85/1 86/86/1 87/87/1 88/88/1 
f 85/85/1 88/88/1 89/89/1 90/90/1 
f 89/89/1 88/88/1 91/91/1 92/92/1 
f 88/88/1 93/93/1 94/94/1 91/91/1 
f 88/88/1 95/95/1 96/96/1 93/93/1 
f 97/97/1 98/98/1 99/99/1 100/100/1 
f 101/101/15 100/102/15 99/103/15 102/104/15 
f 103/101/16 104/104/16 98/103/16 97/102/16 
f 102/99/3 104/98/3 103/97/3 101/100/3 
f 104/105/17 102/106/17 99/107/17 98/108/17 
f 103/109/18 97/110/18 100/111/18 101/112/18 
f 105/97/1 106/98/1 107/99/1 108/100/1 
f 105/102/16 109/101/16 110/104/16 106/103/16 
f 111/101/15 108/102/15 107/103/15 112/104/15 
f 111/100/3 112/99/3 110/98/3 109/97/3 
f 107/113/17 106/114/17 110/115/17 112/116/17 
f 108/117/18 111/118/18 109/119/18 105/120/18 
f 113/121/16 114/122/16 115/123/16 116/124/16 
f 117/125/16 118/126/16 119/127/16 120/128/16 
f 121/121/15 122/124/15 123/123/15 124/122/15 
f 125/129/15 126/130/15 127/131/15 128/132/15 
f 129/133/15 130/134/15 131/135/15 132/136/15 
f 133/137/1 134/138/1 135/139/1 136/140/1 
# 64 polygons - 8 triangles

